{
  "source": "opencpop_midi",
  "midi": "D:\\YiYuTongSheng\\data\\dataset\\opencpop\\midis\\2018.midi",
  "note_count": 558,
  "phrases": [
    {
      "id": 1,
      "start": 20.58,
      "end": 26.491667,
      "duration": 5.911667,
      "note_start": 0,
      "note_end": 16,
      "notes": [
        {
          "pitch": "A3",
          "midi": 57,
          "start": 20.58,
          "end": 20.738333,
          "duration": 0.158333,
          "velocity": 100
        },
        {
          "pitch": "A3",
          "midi": 57,
          "start": 20.798333,
          "end": 20.941667,
          "duration": 0.143333,
          "velocity": 100
        },
        {
          "pitch": "B3",
          "midi": 59,
          "start": 20.991667,
          "end": 21.158333,
          "duration": 0.166667,
          "velocity": 100
        },
        {
          "pitch": "C#4",
          "midi": 61,
          "start": 21.206667,
          "end": 21.52,
          "duration": 0.313333,
          "velocity": 100
        },
        {
          "pitch": "C#4",
          "midi": 61,
          "start": 21.62,
          "end": 21.971667,
          "duration": 0.351667,
          "velocity": 100
        },
        {
          "pitch": "C#4",
          "midi": 61,
          "start": 22.003333,
          "end": 22.283333,
          "duration": 0.28,
          "velocity": 100
        },
        {
          "pitch": "D4",
          "midi": 62,
          "start": 22.396667,
          "end": 22.635,
          "duration": 0.238333,
          "velocity": 100
        },
        {
          "pitch": "C#4",
          "midi": 61,
          "start": 22.695,
          "end": 23.345,
          "duration": 0.65,
          "velocity": 100
        },
        {
          "pitch": "C#4",
          "midi": 61,
          "start": 23.825,
          "end": 24.005,
          "duration": 0.18,
          "velocity": 100
        },
        {
          "pitch": "B3",
          "midi": 59,
          "start": 24.041667,
          "end": 24.205,
          "duration": 0.163333,
          "velocity": 100
        },
        {
          "pitch": "A3",
          "midi": 57,
          "start": 24.241667,
          "end": 24.405,
          "duration": 0.163333,
          "velocity": 100
        },
        {
          "pitch": "B3",
          "midi": 59,
          "start": 24.453333,
          "end": 24.761667,
          "duration": 0.308333,
          "velocity": 100
        },
        {
          "pitch": "B3",
          "midi": 59,
          "start": 24.846667,
          "end": 25.12,
          "duration": 0.273333,
          "velocity": 100
        },
        {
          "pitch": "B3",
          "midi": 59,
          "start": 25.223333,
          "end": 25.491667,
          "duration": 0.268333,
          "velocity": 100
        },
        {
          "pitch": "D4",
          "midi": 62,
          "start": 25.601667,
          "end": 25.796667,
          "duration": 0.195,
          "velocity": 100
        },
        {
          "pitch": "C#4",
          "midi": 61,
          "start": 25.825,
          "end": 26.491667,
          "duration": 0.666667,
          "velocity": 100
        }
      ]
    },
    {
      "id": 2,
      "start": 27.121667,
      "end": 31.126667,
      "duration": 4.005,
      "note_start": 16,
      "note_end": 26,
      "notes": [
        {
          "pitch": "B3",
          "midi": 59,
          "start": 27.121667,
          "end": 27.491667,
          "duration": 0.37,
          "velocity": 100
        },
        {
          "pitch": "A3",
          "midi": 57,
          "start": 27.518333,
          "end": 27.886667,
          "duration": 0.368333,
          "velocity": 100
        },
        {
          "pitch": "G#3",
          "midi": 56,
          "start": 27.951667,
          "end": 28.18,
          "duration": 0.228333,
          "velocity": 100
        },
        {
          "pitch": "A3",
          "midi": 57,
          "start": 28.195,
          "end": 28.593333,
          "duration": 0.398333,
          "velocity": 100
        },
        {
          "pitch": "G#3",
          "midi": 56,
          "start": 29.016667,
          "end": 29.168333,
          "duration": 0.151667,
          "velocity": 100
        },
        {
          "pitch": "A3",
          "midi": 57,
          "start": 29.195,
          "end": 29.565,
          "duration": 0.37,
          "velocity": 100
        },
        {
          "pitch": "G#3",
          "midi": 56,
          "start": 29.593333,
          "end": 29.828333,
          "duration": 0.235,
          "velocity": 100
        },
        {
          "pitch": "F#3",
          "midi": 54,
          "start": 29.968333,
          "end": 30.298333,
          "duration": 0.33,
          "velocity": 100
        },
        {
          "pitch": "E3",
          "midi": 52,
          "start": 30.331667,
          "end": 30.608333,
          "duration": 0.276667,
          "velocity": 100
        },
        {
          "pitch": "E3",
          "midi": 52,
          "start": 30.698333,
          "end": 31.126667,
          "duration": 0.428333,
          "velocity": 100
        }
      ]
    },
    {
      "id": 3,
      "start": 33.255,
      "end": 36.166667,
      "duration": 2.911667,
      "note_start": 26,
      "note_end": 33,
      "notes": [
        {
          "pitch": "A3",
          "midi": 57,
          "start": 33.255,
          "end": 33.455,
          "duration": 0.2,
          "velocity": 100
        },
        {
          "pitch": "B3",
          "midi": 59,
          "start": 33.486667,
          "end": 33.683333,
          "duration": 0.196667,
          "velocity": 100
        },
        {
          "pitch": "C#4",
          "midi": 61,
          "start": 33.713333,
          "end": 33.915,
          "duration": 0.201667,
          "velocity": 100
        },
        {
          "pitch": "D4",
          "midi": 62,
          "start": 33.951667,
          "end": 34.401667,
          "duration": 0.45,
          "velocity": 100
        },
        {
          "pitch": "F#3",
          "midi": 54,
          "start": 34.696667,
          "end": 35.043333,
          "duration": 0.346667,
          "velocity": 100
        },
        {
          "pitch": "A3",
          "midi": 57,
          "start": 35.093333,
          "end": 35.395,
          "duration": 0.301667,
          "velocity": 100
        },
        {
          "pitch": "G#3",
          "midi": 56,
          "start": 35.538333,
          "end": 36.166667,
          "duration": 0.628333,
          "velocity": 100
        }
      ]
    },
    {
      "id": 4,
      "start": 36.843333,
      "end": 43.83,
      "duration": 6.986667,
      "note_start": 33,
      "note_end": 53,
      "notes": [
        {
          "pitch": "E3",
          "midi": 52,
          "start": 36.843333,
          "end": 37.078333,
          "duration": 0.235,
          "velocity": 100
        },
        {
          "pitch": "C#4",
          "midi": 61,
          "start": 37.135,
          "end": 37.4,
          "duration": 0.265,
          "velocity": 100
        },
        {
          "pitch": "D4",
          "midi": 62,
          "start": 37.501667,
          "end": 37.833333,
          "duration": 0.331667,
          "velocity": 100
        },
        {
          "pitch": "C#4",
          "midi": 61,
          "start": 37.875,
          "end": 38.178333,
          "duration": 0.303333,
          "velocity": 100
        },
        {
          "pitch": "B3",
          "midi": 59,
          "start": 38.22,
          "end": 38.47,
          "duration": 0.25,
          "velocity": 100
        },
        {
          "pitch": "A3",
          "midi": 57,
          "start": 38.518333,
          "end": 38.791667,
          "duration": 0.273333,
          "velocity": 100
        },
        {
          "pitch": "A3",
          "midi": 57,
          "start": 39.05,
          "end": 39.4,
          "duration": 0.35,
          "velocity": 100
        },
        {
          "pitch": "G#3",
          "midi": 56,
          "start": 39.438333,
          "end": 39.78,
          "duration": 0.341667,
          "velocity": 100
        },
        {
          "pitch": "A3",
          "midi": 57,
          "start": 39.828333,
          "end": 40.073333,
          "duration": 0.245,
          "velocity": 100
        },
        {
          "pitch": "C#4",
          "midi": 61,
          "start": 40.185,
          "end": 40.305,
          "duration": 0.12,
          "velocity": 100
        },
        {
          "pitch": "D4",
          "midi": 62,
          "start": 40.305,
          "end": 40.608333,
          "duration": 0.303333,
          "velocity": 100
        },
        {
          "pitch": "C#4",
          "midi": 61,
          "start": 40.648333,
          "end": 40.968333,
          "duration": 0.32,
          "velocity": 100
        },
        {
          "pitch": "B3",
          "midi": 59,
          "start": 41.048333,
          "end": 41.355,
          "duration": 0.306667,
          "velocity": 100
        },
        {
          "pitch": "A3",
          "midi": 57,
          "start": 41.381667,
          "end": 41.57,
          "duration": 0.188333,
          "velocity": 100
        },
        {
          "pitch": "C#4",
          "midi": 61,
          "start": 41.676667,
          "end": 41.855,
          "duration": 0.178333,
          "velocity": 100
        },
        {
          "pitch": "D4",
          "midi": 62,
          "start": 41.876667,
          "end": 42.2,
          "duration": 0.323333,
          "velocity": 100
        },
        {
          "pitch": "C#4",
          "midi": 61,
          "start": 42.293333,
          "end": 42.65,
          "duration": 0.356667,
          "velocity": 100
        },
        {
          "pitch": "B3",
          "midi": 59,
          "start": 42.72,
          "end": 43.076667,
          "duration": 0.356667,
          "velocity": 100
        },
        {
          "pitch": "A3",
          "midi": 57,
          "start": 43.11,
          "end": 43.281667,
          "duration": 0.171667,
          "velocity": 100
        },
        {
          "pitch": "B3",
          "midi": 59,
          "start": 43.36,
          "end": 43.83,
          "duration": 0.47,
          "velocity": 100
        }
      ]
    },
    {
      "id": 5,
      "start": 45.966667,
      "end": 48.4,
      "duration": 2.433333,
      "note_start": 53,
      "note_end": 61,
      "notes": [
        {
          "pitch": "A3",
          "midi": 57,
          "start": 45.966667,
          "end": 46.091667,
          "duration": 0.125,
          "velocity": 100
        },
        {
          "pitch": "A3",
          "midi": 57,
          "start": 46.166667,
          "end": 46.308333,
          "duration": 0.141667,
          "velocity": 100
        },
        {
          "pitch": "B3",
          "midi": 59,
          "start": 46.371667,
          "end": 46.538333,
          "duration": 0.166667,
          "velocity": 100
        },
        {
          "pitch": "C#4",
          "midi": 61,
          "start": 46.585,
          "end": 46.891667,
          "duration": 0.306667,
          "velocity": 100
        },
        {
          "pitch": "C#4",
          "midi": 61,
          "start": 46.953333,
          "end": 47.221667,
          "duration": 0.268333,
          "velocity": 100
        },
        {
          "pitch": "C#4",
          "midi": 61,
          "start": 47.298333,
          "end": 47.606667,
          "duration": 0.308333,
          "velocity": 100
        },
        {
          "pitch": "D4",
          "midi": 62,
          "start": 47.701667,
          "end": 47.903333,
          "duration": 0.201667,
          "velocity": 100
        },
        {
          "pitch": "C#4",
          "midi": 61,
          "start": 47.97,
          "end": 48.4,
          "duration": 0.43,
          "velocity": 100
        }
      ]
    },
    {
      "id": 6,
      "start": 49.106667,
      "end": 51.813333,
      "duration": 2.706666,
      "note_start": 61,
      "note_end": 69,
      "notes": [
        {
          "pitch": "C#4",
          "midi": 61,
          "start": 49.106667,
          "end": 49.268333,
          "duration": 0.161667,
          "velocity": 100
        },
        {
          "pitch": "B3",
          "midi": 59,
          "start": 49.316667,
          "end": 49.46,
          "duration": 0.143333,
          "velocity": 100
        },
        {
          "pitch": "A3",
          "midi": 57,
          "start": 49.505,
          "end": 49.638333,
          "duration": 0.133333,
          "velocity": 100
        },
        {
          "pitch": "B3",
          "midi": 59,
          "start": 49.681667,
          "end": 50.035,
          "duration": 0.353333,
          "velocity": 100
        },
        {
          "pitch": "B3",
          "midi": 59,
          "start": 50.095,
          "end": 50.435,
          "duration": 0.34,
          "velocity": 100
        },
        {
          "pitch": "B3",
          "midi": 59,
          "start": 50.485,
          "end": 50.835,
          "duration": 0.35,
          "velocity": 100
        },
        {
          "pitch": "D4",
          "midi": 62,
          "start": 50.876667,
          "end": 51.166667,
          "duration": 0.29,
          "velocity": 100
        },
        {
          "pitch": "C#4",
          "midi": 61,
          "start": 51.206667,
          "end": 51.813333,
          "duration": 0.606667,
          "velocity": 100
        }
      ]
    },
    {
      "id": 7,
      "start": 52.416667,
      "end": 69.846667,
      "duration": 17.43,
      "note_start": 69,
      "note_end": 107,
      "notes": [
        {
          "pitch": "B3",
          "midi": 59,
          "start": 52.416667,
          "end": 52.78,
          "duration": 0.363333,
          "velocity": 100
        },
        {
          "pitch": "A3",
          "midi": 57,
          "start": 52.833333,
          "end": 53.146667,
          "duration": 0.313333,
          "velocity": 100
        },
        {
          "pitch": "G#3",
          "midi": 56,
          "start": 53.208333,
          "end": 53.483333,
          "duration": 0.275,
          "velocity": 100
        },
        {
          "pitch": "A3",
          "midi": 57,
          "start": 53.541667,
          "end": 53.918333,
          "duration": 0.376667,
          "velocity": 100
        },
        {
          "pitch": "G#3",
          "midi": 56,
          "start": 54.195,
          "end": 54.423333,
          "duration": 0.228333,
          "velocity": 100
        },
        {
          "pitch": "A3",
          "midi": 57,
          "start": 54.465,
          "end": 54.786667,
          "duration": 0.321667,
          "velocity": 100
        },
        {
          "pitch": "G#3",
          "midi": 56,
          "start": 54.831667,
          "end": 55.185,
          "duration": 0.353333,
          "velocity": 100
        },
        {
          "pitch": "A3",
          "midi": 57,
          "start": 55.243333,
          "end": 55.531667,
          "duration": 0.288333,
          "velocity": 100
        },
        {
          "pitch": "F#4",
          "midi": 66,
          "start": 55.633333,
          "end": 55.868333,
          "duration": 0.235,
          "velocity": 100
        },
        {
          "pitch": "E4",
          "midi": 64,
          "start": 56.04,
          "end": 56.985,
          "duration": 0.945,
          "velocity": 100
        },
        {
          "pitch": "E4",
          "midi": 64,
          "start": 57.546667,
          "end": 57.911667,
          "duration": 0.365,
          "velocity": 100
        },
        {
          "pitch": "D4",
          "midi": 62,
          "start": 57.983333,
          "end": 58.296667,
          "duration": 0.313333,
          "velocity": 100
        },
        {
          "pitch": "C#4",
          "midi": 61,
          "start": 58.371667,
          "end": 58.726667,
          "duration": 0.355,
          "velocity": 100
        },
        {
          "pitch": "E4",
          "midi": 64,
          "start": 58.773333,
          "end": 59.048333,
          "duration": 0.275,
          "velocity": 100
        },
        {
          "pitch": "E4",
          "midi": 64,
          "start": 59.175,
          "end": 59.503333,
          "duration": 0.328333,
          "velocity": 100
        },
        {
          "pitch": "F#4",
          "midi": 66,
          "start": 59.566667,
          "end": 59.906667,
          "duration": 0.34,
          "velocity": 100
        },
        {
          "pitch": "D4",
          "midi": 62,
          "start": 59.971667,
          "end": 60.355,
          "duration": 0.383333,
          "velocity": 100
        },
        {
          "pitch": "C#4",
          "midi": 61,
          "start": 60.381667,
          "end": 60.615,
          "duration": 0.233333,
          "velocity": 100
        },
        {
          "pitch": "B3",
          "midi": 59,
          "start": 60.68,
          "end": 61.191667,
          "duration": 0.511667,
          "velocity": 100
        },
        {
          "pitch": "B3",
          "midi": 59,
          "start": 61.706667,
          "end": 61.886667,
          "duration": 0.18,
          "velocity": 100
        },
        {
          "pitch": "C#4",
          "midi": 61,
          "start": 61.906667,
          "end": 62.105,
          "duration": 0.198333,
          "velocity": 100
        },
        {
          "pitch": "D4",
          "midi": 62,
          "start": 62.136667,
          "end": 62.325,
          "duration": 0.188333,
          "velocity": 100
        },
        {
          "pitch": "D4",
          "midi": 62,
          "start": 62.355,
          "end": 62.691667,
          "duration": 0.336667,
          "velocity": 100
        },
        {
          "pitch": "E4",
          "midi": 64,
          "start": 62.718333,
          "end": 62.985,
          "duration": 0.266667,
          "velocity": 100
        },
        {
          "pitch": "C#4",
          "midi": 61,
          "start": 63.101667,
          "end": 63.423333,
          "duration": 0.321667,
          "velocity": 100
        },
        {
          "pitch": "B3",
          "midi": 59,
          "start": 63.496667,
          "end": 63.68,
          "duration": 0.183333,
          "velocity": 100
        },
        {
          "pitch": "A3",
          "midi": 57,
          "start": 63.761667,
          "end": 64.09,
          "duration": 0.328333,
          "velocity": 100
        },
        {
          "pitch": "A3",
          "midi": 57,
          "start": 64.303333,
          "end": 64.671667,
          "duration": 0.368333,
          "velocity": 100
        },
        {
          "pitch": "G#3",
          "midi": 56,
          "start": 64.745,
          "end": 65.106667,
          "duration": 0.361667,
          "velocity": 100
        },
        {
          "pitch": "A3",
          "midi": 57,
          "start": 65.145,
          "end": 65.391667,
          "duration": 0.246667,
          "velocity": 100
        },
        {
          "pitch": "D4",
          "midi": 62,
          "start": 65.535,
          "end": 65.863333,
          "duration": 0.328333,
          "velocity": 100
        },
        {
          "pitch": "C#4",
          "midi": 61,
          "start": 65.903333,
          "end": 66.24,
          "duration": 0.336667,
          "velocity": 100
        },
        {
          "pitch": "D4",
          "midi": 62,
          "start": 66.28,
          "end": 66.591667,
          "duration": 0.311667,
          "velocity": 100
        },
        {
          "pitch": "F#3",
          "midi": 54,
          "start": 66.668333,
          "end": 67.046667,
          "duration": 0.378333,
          "velocity": 100
        },
        {
          "pitch": "A3",
          "midi": 57,
          "start": 67.08,
          "end": 67.463333,
          "duration": 0.383333,
          "velocity": 100
        },
        {
          "pitch": "G#3",
          "midi": 56,
          "start": 67.893333,
          "end": 68.216667,
          "duration": 0.323333,
          "velocity": 100
        },
        {
          "pitch": "A3",
          "midi": 57,
          "start": 68.273333,
          "end": 68.65,
          "duration": 0.376667,
          "velocity": 100
        },
        {
          "pitch": "A3",
          "midi": 57,
          "start": 68.676667,
          "end": 69.846667,
          "duration": 1.17,
          "velocity": 100
        }
      ]
    },
    {
      "id": 8,
      "start": 71.805,
      "end": 83.27,
      "duration": 11.465,
      "note_start": 107,
      "note_end": 135,
      "notes": [
        {
          "pitch": "D4",
          "midi": 62,
          "start": 71.805,
          "end": 72.166667,
          "duration": 0.361667,
          "velocity": 100
        },
        {
          "pitch": "D4",
          "midi": 62,
          "start": 72.205,
          "end": 72.566667,
          "duration": 0.361667,
          "velocity": 100
        },
        {
          "pitch": "D4",
          "midi": 62,
          "start": 72.598333,
          "end": 72.875,
          "duration": 0.276667,
          "velocity": 100
        },
        {
          "pitch": "D4",
          "midi": 62,
          "start": 72.985,
          "end": 73.19,
          "duration": 0.205,
          "velocity": 100
        },
        {
          "pitch": "C#4",
          "midi": 61,
          "start": 73.23,
          "end": 73.59,
          "duration": 0.36,
          "velocity": 100
        },
        {
          "pitch": "G#3",
          "midi": 56,
          "start": 73.75,
          "end": 74.166667,
          "duration": 0.416667,
          "velocity": 100
        },
        {
          "pitch": "C#4",
          "midi": 61,
          "start": 74.188333,
          "end": 74.548333,
          "duration": 0.36,
          "velocity": 100
        },
        {
          "pitch": "B3",
          "midi": 59,
          "start": 74.575,
          "end": 74.908333,
          "duration": 0.333333,
          "velocity": 100
        },
        {
          "pitch": "B3",
          "midi": 59,
          "start": 74.96,
          "end": 75.238333,
          "duration": 0.278333,
          "velocity": 100
        },
        {
          "pitch": "A3",
          "midi": 57,
          "start": 75.355,
          "end": 75.575,
          "duration": 0.22,
          "velocity": 100
        },
        {
          "pitch": "A3",
          "midi": 57,
          "start": 75.62,
          "end": 76.031667,
          "duration": 0.411667,
          "velocity": 100
        },
        {
          "pitch": "A3",
          "midi": 57,
          "start": 76.293333,
          "end": 76.461667,
          "duration": 0.168333,
          "velocity": 100
        },
        {
          "pitch": "D4",
          "midi": 62,
          "start": 76.501667,
          "end": 76.815,
          "duration": 0.313333,
          "velocity": 100
        },
        {
          "pitch": "C#4",
          "midi": 61,
          "start": 76.871667,
          "end": 77.218333,
          "duration": 0.346667,
          "velocity": 100
        },
        {
          "pitch": "B3",
          "midi": 59,
          "start": 77.286667,
          "end": 77.613333,
          "duration": 0.326667,
          "velocity": 100
        },
        {
          "pitch": "C#4",
          "midi": 61,
          "start": 77.706667,
          "end": 78.026667,
          "duration": 0.32,
          "velocity": 100
        },
        {
          "pitch": "D4",
          "midi": 62,
          "start": 78.066667,
          "end": 78.433333,
          "duration": 0.366667,
          "velocity": 100
        },
        {
          "pitch": "C#4",
          "midi": 61,
          "start": 78.518333,
          "end": 78.753333,
          "duration": 0.235,
          "velocity": 100
        },
        {
          "pitch": "D4",
          "midi": 62,
          "start": 78.796667,
          "end": 79.158333,
          "duration": 0.361667,
          "velocity": 100
        },
        {
          "pitch": "F#4",
          "midi": 66,
          "start": 79.333333,
          "end": 79.661667,
          "duration": 0.328333,
          "velocity": 100
        },
        {
          "pitch": "F#4",
          "midi": 66,
          "start": 79.701667,
          "end": 79.926667,
          "duration": 0.225,
          "velocity": 100
        },
        {
          "pitch": "F#4",
          "midi": 66,
          "start": 80.063333,
          "end": 80.206667,
          "duration": 0.143333,
          "velocity": 100
        },
        {
          "pitch": "G#4",
          "midi": 68,
          "start": 80.215,
          "end": 80.45,
          "duration": 0.235,
          "velocity": 100
        },
        {
          "pitch": "E4",
          "midi": 64,
          "start": 80.498333,
          "end": 80.791667,
          "duration": 0.293333,
          "velocity": 100
        },
        {
          "pitch": "D4",
          "midi": 62,
          "start": 80.878333,
          "end": 81.25,
          "duration": 0.371667,
          "velocity": 100
        },
        {
          "pitch": "D4",
          "midi": 62,
          "start": 81.293333,
          "end": 81.591667,
          "duration": 0.298333,
          "velocity": 100
        },
        {
          "pitch": "E4",
          "midi": 64,
          "start": 81.68,
          "end": 81.92,
          "duration": 0.24,
          "velocity": 100
        },
        {
          "pitch": "C#4",
          "midi": 61,
          "start": 81.965,
          "end": 83.27,
          "duration": 1.305,
          "velocity": 100
        }
      ]
    },
    {
      "id": 9,
      "start": 84.41,
      "end": 89.788333,
      "duration": 5.378333,
      "note_start": 135,
      "note_end": 148,
      "notes": [
        {
          "pitch": "F#4",
          "midi": 66,
          "start": 84.41,
          "end": 84.718333,
          "duration": 0.308333,
          "velocity": 100
        },
        {
          "pitch": "F#4",
          "midi": 66,
          "start": 84.818333,
          "end": 85.118333,
          "duration": 0.3,
          "velocity": 100
        },
        {
          "pitch": "F#4",
          "midi": 66,
          "start": 85.22,
          "end": 85.468333,
          "duration": 0.248333,
          "velocity": 100
        },
        {
          "pitch": "F#4",
          "midi": 66,
          "start": 85.571667,
          "end": 85.863333,
          "duration": 0.291667,
          "velocity": 100
        },
        {
          "pitch": "F4",
          "midi": 65,
          "start": 85.891667,
          "end": 86.318333,
          "duration": 0.426667,
          "velocity": 100
        },
        {
          "pitch": "F#4",
          "midi": 66,
          "start": 86.4,
          "end": 86.615,
          "duration": 0.215,
          "velocity": 100
        },
        {
          "pitch": "G#4",
          "midi": 68,
          "start": 86.688333,
          "end": 87.091667,
          "duration": 0.403333,
          "velocity": 100
        },
        {
          "pitch": "C#4",
          "midi": 61,
          "start": 87.395,
          "end": 87.566667,
          "duration": 0.171667,
          "velocity": 100
        },
        {
          "pitch": "G#4",
          "midi": 68,
          "start": 87.591667,
          "end": 87.915,
          "duration": 0.323333,
          "velocity": 100
        },
        {
          "pitch": "A4",
          "midi": 69,
          "start": 87.951667,
          "end": 88.191667,
          "duration": 0.24,
          "velocity": 100
        },
        {
          "pitch": "G#4",
          "midi": 68,
          "start": 88.24,
          "end": 88.585,
          "duration": 0.345,
          "velocity": 100
        },
        {
          "pitch": "E4",
          "midi": 64,
          "start": 88.728333,
          "end": 89.155,
          "duration": 0.426667,
          "velocity": 100
        },
        {
          "pitch": "A3",
          "midi": 57,
          "start": 89.191667,
          "end": 89.788333,
          "duration": 0.596667,
          "velocity": 100
        }
      ]
    },
    {
      "id": 10,
      "start": 90.776667,
      "end": 96.391667,
      "duration": 5.615,
      "note_start": 148,
      "note_end": 157,
      "notes": [
        {
          "pitch": "D4",
          "midi": 62,
          "start": 90.776667,
          "end": 91.126667,
          "duration": 0.35,
          "velocity": 100
        },
        {
          "pitch": "C#4",
          "midi": 61,
          "start": 91.165,
          "end": 91.39,
          "duration": 0.225,
          "velocity": 100
        },
        {
          "pitch": "B3",
          "midi": 59,
          "start": 91.45,
          "end": 91.873333,
          "duration": 0.423333,
          "velocity": 100
        },
        {
          "pitch": "A3",
          "midi": 57,
          "start": 91.91,
          "end": 92.1,
          "duration": 0.19,
          "velocity": 100
        },
        {
          "pitch": "D4",
          "midi": 62,
          "start": 92.3,
          "end": 92.656667,
          "duration": 0.356667,
          "velocity": 100
        },
        {
          "pitch": "C#4",
          "midi": 61,
          "start": 92.69,
          "end": 93.038333,
          "duration": 0.348333,
          "velocity": 100
        },
        {
          "pitch": "D4",
          "midi": 62,
          "start": 93.08,
          "end": 93.45,
          "duration": 0.37,
          "velocity": 100
        },
        {
          "pitch": "E4",
          "midi": 64,
          "start": 93.5,
          "end": 93.791667,
          "duration": 0.291667,
          "velocity": 100
        },
        {
          "pitch": "E4",
          "midi": 64,
          "start": 93.948333,
          "end": 96.391667,
          "duration": 2.443333,
          "velocity": 100
        }
      ]
    },
    {
      "id": 11,
      "start": 99.668333,
      "end": 111.35,
      "duration": 11.681667,
      "note_start": 157,
      "note_end": 185,
      "notes": [
        {
          "pitch": "E4",
          "midi": 64,
          "start": 99.668333,
          "end": 99.856667,
          "duration": 0.188333,
          "velocity": 100
        },
        {
          "pitch": "E4",
          "midi": 64,
          "start": 99.925,
          "end": 100.113333,
          "duration": 0.188333,
          "velocity": 100
        },
        {
          "pitch": "G#4",
          "midi": 68,
          "start": 100.126667,
          "end": 100.348333,
          "duration": 0.221667,
          "velocity": 100
        },
        {
          "pitch": "A4",
          "midi": 69,
          "start": 100.376667,
          "end": 100.663333,
          "duration": 0.286667,
          "velocity": 100
        },
        {
          "pitch": "A4",
          "midi": 69,
          "start": 100.736667,
          "end": 100.931667,
          "duration": 0.195,
          "velocity": 100
        },
        {
          "pitch": "A4",
          "midi": 69,
          "start": 100.948333,
          "end": 101.241667,
          "duration": 0.293333,
          "velocity": 100
        },
        {
          "pitch": "E4",
          "midi": 64,
          "start": 101.4,
          "end": 101.731667,
          "duration": 0.331667,
          "velocity": 100
        },
        {
          "pitch": "E4",
          "midi": 64,
          "start": 101.798333,
          "end": 102.42,
          "duration": 0.621667,
          "velocity": 100
        },
        {
          "pitch": "E4",
          "midi": 64,
          "start": 102.721667,
          "end": 102.916667,
          "duration": 0.195,
          "velocity": 100
        },
        {
          "pitch": "E4",
          "midi": 64,
          "start": 102.956667,
          "end": 103.116667,
          "duration": 0.16,
          "velocity": 100
        },
        {
          "pitch": "A4",
          "midi": 69,
          "start": 103.145,
          "end": 103.316667,
          "duration": 0.171667,
          "velocity": 100
        },
        {
          "pitch": "B4",
          "midi": 71,
          "start": 103.393333,
          "end": 103.691667,
          "duration": 0.298333,
          "velocity": 100
        },
        {
          "pitch": "B4",
          "midi": 71,
          "start": 103.75,
          "end": 103.975,
          "duration": 0.225,
          "velocity": 100
        },
        {
          "pitch": "B4",
          "midi": 71,
          "start": 103.988333,
          "end": 104.323333,
          "duration": 0.335,
          "velocity": 100
        },
        {
          "pitch": "E4",
          "midi": 64,
          "start": 104.541667,
          "end": 104.89,
          "duration": 0.348333,
          "velocity": 100
        },
        {
          "pitch": "F4",
          "midi": 65,
          "start": 105.015,
          "end": 105.473333,
          "duration": 0.458333,
          "velocity": 100
        },
        {
          "pitch": "B4",
          "midi": 71,
          "start": 105.728333,
          "end": 106.115,
          "duration": 0.386667,
          "velocity": 100
        },
        {
          "pitch": "C#5",
          "midi": 73,
          "start": 106.168333,
          "end": 106.55,
          "duration": 0.381667,
          "velocity": 100
        },
        {
          "pitch": "B4",
          "midi": 71,
          "start": 106.571667,
          "end": 106.815,
          "duration": 0.243333,
          "velocity": 100
        },
        {
          "pitch": "A4",
          "midi": 69,
          "start": 106.941667,
          "end": 107.188333,
          "duration": 0.246667,
          "velocity": 100
        },
        {
          "pitch": "A4",
          "midi": 69,
          "start": 107.22,
          "end": 107.63,
          "duration": 0.41,
          "velocity": 100
        },
        {
          "pitch": "A4",
          "midi": 69,
          "start": 107.888333,
          "end": 108.06,
          "duration": 0.171667,
          "velocity": 100
        },
        {
          "pitch": "G#4",
          "midi": 68,
          "start": 108.096667,
          "end": 108.406667,
          "duration": 0.31,
          "velocity": 100
        },
        {
          "pitch": "A4",
          "midi": 69,
          "start": 108.493333,
          "end": 108.82,
          "duration": 0.326667,
          "velocity": 100
        },
        {
          "pitch": "G#4",
          "midi": 68,
          "start": 108.876667,
          "end": 109.206667,
          "duration": 0.33,
          "velocity": 100
        },
        {
          "pitch": "E4",
          "midi": 64,
          "start": 109.248333,
          "end": 109.646667,
          "duration": 0.398333,
          "velocity": 100
        },
        {
          "pitch": "F#4",
          "midi": 66,
          "start": 109.665,
          "end": 110.268333,
          "duration": 0.603333,
          "velocity": 100
        },
        {
          "pitch": "B4",
          "midi": 71,
          "start": 110.386667,
          "end": 111.35,
          "duration": 0.963333,
          "velocity": 100
        }
      ]
    },
    {
      "id": 12,
      "start": 112.281667,
      "end": 123.856667,
      "duration": 11.575,
      "note_start": 185,
      "note_end": 213,
      "notes": [
        {
          "pitch": "B3",
          "midi": 59,
          "start": 112.281667,
          "end": 112.418333,
          "duration": 0.136667,
          "velocity": 100
        },
        {
          "pitch": "B3",
          "midi": 59,
          "start": 112.463333,
          "end": 112.595,
          "duration": 0.131667,
          "velocity": 100
        },
        {
          "pitch": "C#4",
          "midi": 61,
          "start": 112.655,
          "end": 112.841667,
          "duration": 0.186667,
          "velocity": 100
        },
        {
          "pitch": "D4",
          "midi": 62,
          "start": 112.901667,
          "end": 113.228333,
          "duration": 0.326667,
          "velocity": 100
        },
        {
          "pitch": "C#4",
          "midi": 61,
          "start": 113.245,
          "end": 113.603333,
          "duration": 0.358333,
          "velocity": 100
        },
        {
          "pitch": "D4",
          "midi": 62,
          "start": 113.625,
          "end": 113.998333,
          "duration": 0.373333,
          "velocity": 100
        },
        {
          "pitch": "F#4",
          "midi": 66,
          "start": 114.035,
          "end": 114.276667,
          "duration": 0.241667,
          "velocity": 100
        },
        {
          "pitch": "E4",
          "midi": 64,
          "start": 114.315,
          "end": 115.021667,
          "duration": 0.706667,
          "velocity": 100
        },
        {
          "pitch": "D4",
          "midi": 62,
          "start": 115.401667,
          "end": 115.588333,
          "duration": 0.186667,
          "velocity": 100
        },
        {
          "pitch": "C#4",
          "midi": 61,
          "start": 115.62,
          "end": 115.766667,
          "duration": 0.146667,
          "velocity": 100
        },
        {
          "pitch": "D4",
          "midi": 62,
          "start": 115.8,
          "end": 115.976667,
          "duration": 0.176667,
          "velocity": 100
        },
        {
          "pitch": "E4",
          "midi": 64,
          "start": 115.995,
          "end": 116.353333,
          "duration": 0.358333,
          "velocity": 100
        },
        {
          "pitch": "E4",
          "midi": 64,
          "start": 116.408333,
          "end": 116.743333,
          "duration": 0.335,
          "velocity": 100
        },
        {
          "pitch": "B4",
          "midi": 71,
          "start": 116.788333,
          "end": 117.123333,
          "duration": 0.335,
          "velocity": 100
        },
        {
          "pitch": "G#4",
          "midi": 68,
          "start": 117.171667,
          "end": 117.385,
          "duration": 0.213333,
          "velocity": 100
        },
        {
          "pitch": "A4",
          "midi": 69,
          "start": 117.446667,
          "end": 117.738333,
          "duration": 0.291667,
          "velocity": 100
        },
        {
          "pitch": "A4",
          "midi": 69,
          "start": 118.006667,
          "end": 118.395,
          "duration": 0.388333,
          "velocity": 100
        },
        {
          "pitch": "G#4",
          "midi": 68,
          "start": 118.416667,
          "end": 118.698333,
          "duration": 0.281667,
          "velocity": 100
        },
        {
          "pitch": "E4",
          "midi": 64,
          "start": 118.788333,
          "end": 119.08,
          "duration": 0.291667,
          "velocity": 100
        },
        {
          "pitch": "D4",
          "midi": 62,
          "start": 119.158333,
          "end": 119.48,
          "duration": 0.321667,
          "velocity": 100
        },
        {
          "pitch": "C#4",
          "midi": 61,
          "start": 119.578333,
          "end": 119.793333,
          "duration": 0.215,
          "velocity": 100
        },
        {
          "pitch": "D4",
          "midi": 62,
          "start": 119.8,
          "end": 120.108333,
          "duration": 0.308333,
          "velocity": 100
        },
        {
          "pitch": "E4",
          "midi": 64,
          "start": 120.135,
          "end": 120.388333,
          "duration": 0.253333,
          "velocity": 100
        },
        {
          "pitch": "F#4",
          "midi": 66,
          "start": 120.741667,
          "end": 121.065,
          "duration": 0.323333,
          "velocity": 100
        },
        {
          "pitch": "C#5",
          "midi": 73,
          "start": 121.126667,
          "end": 121.46,
          "duration": 0.333333,
          "velocity": 100
        },
        {
          "pitch": "B4",
          "midi": 71,
          "start": 121.486667,
          "end": 121.765,
          "duration": 0.278333,
          "velocity": 100
        },
        {
          "pitch": "A4",
          "midi": 69,
          "start": 121.875,
          "end": 122.1,
          "duration": 0.225,
          "velocity": 100
        },
        {
          "pitch": "B4",
          "midi": 71,
          "start": 122.15,
          "end": 123.856667,
          "duration": 1.706667,
          "velocity": 100
        }
      ]
    },
    {
      "id": 13,
      "start": 124.846667,
      "end": 136.765,
      "duration": 11.918333,
      "note_start": 213,
      "note_end": 242,
      "notes": [
        {
          "pitch": "E4",
          "midi": 64,
          "start": 124.846667,
          "end": 125.063333,
          "duration": 0.216667,
          "velocity": 100
        },
        {
          "pitch": "E4",
          "midi": 64,
          "start": 125.103333,
          "end": 125.263333,
          "duration": 0.16,
          "velocity": 100
        },
        {
          "pitch": "G#4",
          "midi": 68,
          "start": 125.29,
          "end": 125.511667,
          "duration": 0.221667,
          "velocity": 100
        },
        {
          "pitch": "A4",
          "midi": 69,
          "start": 125.548333,
          "end": 125.85,
          "duration": 0.301667,
          "velocity": 100
        },
        {
          "pitch": "A4",
          "midi": 69,
          "start": 125.926667,
          "end": 126.136667,
          "duration": 0.21,
          "velocity": 100
        },
        {
          "pitch": "A4",
          "midi": 69,
          "start": 126.193333,
          "end": 126.495,
          "duration": 0.301667,
          "velocity": 100
        },
        {
          "pitch": "E4",
          "midi": 64,
          "start": 126.675,
          "end": 127.08,
          "duration": 0.405,
          "velocity": 100
        },
        {
          "pitch": "E4",
          "midi": 64,
          "start": 127.12,
          "end": 127.665,
          "duration": 0.545,
          "velocity": 100
        },
        {
          "pitch": "E4",
          "midi": 64,
          "start": 128.008333,
          "end": 128.233333,
          "duration": 0.225,
          "velocity": 100
        },
        {
          "pitch": "E4",
          "midi": 64,
          "start": 128.258333,
          "end": 128.43,
          "duration": 0.171667,
          "velocity": 100
        },
        {
          "pitch": "A4",
          "midi": 69,
          "start": 128.458333,
          "end": 128.675,
          "duration": 0.216667,
          "velocity": 100
        },
        {
          "pitch": "B4",
          "midi": 71,
          "start": 128.696667,
          "end": 129.035,
          "duration": 0.338333,
          "velocity": 100
        },
        {
          "pitch": "B4",
          "midi": 71,
          "start": 129.081667,
          "end": 129.301667,
          "duration": 0.22,
          "velocity": 100
        },
        {
          "pitch": "B4",
          "midi": 71,
          "start": 129.336667,
          "end": 129.68,
          "duration": 0.343333,
          "velocity": 100
        },
        {
          "pitch": "E4",
          "midi": 64,
          "start": 129.836667,
          "end": 130.151667,
          "duration": 0.315,
          "velocity": 100
        },
        {
          "pitch": "F4",
          "midi": 65,
          "start": 130.23,
          "end": 130.641667,
          "duration": 0.411667,
          "velocity": 100
        },
        {
          "pitch": "B4",
          "midi": 71,
          "start": 131.008333,
          "end": 131.341667,
          "duration": 0.333333,
          "velocity": 100
        },
        {
          "pitch": "C#5",
          "midi": 73,
          "start": 131.38,
          "end": 131.745,
          "duration": 0.365,
          "velocity": 100
        },
        {
          "pitch": "B4",
          "midi": 71,
          "start": 131.793333,
          "end": 132.141667,
          "duration": 0.348333,
          "velocity": 100
        },
        {
          "pitch": "A4",
          "midi": 69,
          "start": 132.203333,
          "end": 132.448333,
          "duration": 0.245,
          "velocity": 100
        },
        {
          "pitch": "A4",
          "midi": 69,
          "start": 132.461667,
          "end": 132.863333,
          "duration": 0.401667,
          "velocity": 100
        },
        {
          "pitch": "A4",
          "midi": 69,
          "start": 133.221667,
          "end": 133.456667,
          "duration": 0.235,
          "velocity": 100
        },
        {
          "pitch": "G#4",
          "midi": 68,
          "start": 133.498333,
          "end": 133.79,
          "duration": 0.291667,
          "velocity": 100
        },
        {
          "pitch": "A4",
          "midi": 69,
          "start": 133.811667,
          "end": 134.113333,
          "duration": 0.301667,
          "velocity": 100
        },
        {
          "pitch": "G#4",
          "midi": 68,
          "start": 134.188333,
          "end": 134.456667,
          "duration": 0.268333,
          "velocity": 100
        },
        {
          "pitch": "E4",
          "midi": 64,
          "start": 134.58,
          "end": 134.955,
          "duration": 0.375,
          "velocity": 100
        },
        {
          "pitch": "F#4",
          "midi": 66,
          "start": 135.008333,
          "end": 135.38,
          "duration": 0.371667,
          "velocity": 100
        },
        {
          "pitch": "B4",
          "midi": 71,
          "start": 135.401667,
          "end": 135.731667,
          "duration": 0.33,
          "velocity": 100
        },
        {
          "pitch": "B4",
          "midi": 71,
          "start": 135.765,
          "end": 136.765,
          "duration": 1.0,
          "velocity": 100
        }
      ]
    },
    {
      "id": 14,
      "start": 137.591667,
      "end": 148.26,
      "duration": 10.668333,
      "note_start": 242,
      "note_end": 270,
      "notes": [
        {
          "pitch": "D4",
          "midi": 62,
          "start": 137.591667,
          "end": 137.8,
          "duration": 0.208333,
          "velocity": 100
        },
        {
          "pitch": "D4",
          "midi": 62,
          "start": 137.825,
          "end": 137.986667,
          "duration": 0.161667,
          "velocity": 100
        },
        {
          "pitch": "E4",
          "midi": 64,
          "start": 138.005,
          "end": 138.196667,
          "duration": 0.191667,
          "velocity": 100
        },
        {
          "pitch": "F#4",
          "midi": 66,
          "start": 138.25,
          "end": 138.566667,
          "duration": 0.316667,
          "velocity": 100
        },
        {
          "pitch": "F4",
          "midi": 65,
          "start": 138.605,
          "end": 138.965,
          "duration": 0.36,
          "velocity": 100
        },
        {
          "pitch": "F#4",
          "midi": 66,
          "start": 139.001667,
          "end": 139.313333,
          "duration": 0.311667,
          "velocity": 100
        },
        {
          "pitch": "A4",
          "midi": 69,
          "start": 139.348333,
          "end": 139.741667,
          "duration": 0.393333,
          "velocity": 100
        },
        {
          "pitch": "G#4",
          "midi": 68,
          "start": 139.798333,
          "end": 140.406667,
          "duration": 0.608333,
          "velocity": 100
        },
        {
          "pitch": "G#4",
          "midi": 68,
          "start": 140.648333,
          "end": 140.818333,
          "duration": 0.17,
          "velocity": 100
        },
        {
          "pitch": "G#4",
          "midi": 68,
          "start": 140.843333,
          "end": 140.993333,
          "duration": 0.15,
          "velocity": 100
        },
        {
          "pitch": "F#4",
          "midi": 66,
          "start": 141.031667,
          "end": 141.248333,
          "duration": 0.216667,
          "velocity": 100
        },
        {
          "pitch": "F4",
          "midi": 65,
          "start": 141.306667,
          "end": 141.648333,
          "duration": 0.341667,
          "velocity": 100
        },
        {
          "pitch": "F4",
          "midi": 65,
          "start": 141.676667,
          "end": 142.015,
          "duration": 0.338333,
          "velocity": 100
        },
        {
          "pitch": "C#5",
          "midi": 73,
          "start": 142.076667,
          "end": 142.388333,
          "duration": 0.311667,
          "velocity": 100
        },
        {
          "pitch": "B4",
          "midi": 71,
          "start": 142.43,
          "end": 142.648333,
          "duration": 0.218333,
          "velocity": 100
        },
        {
          "pitch": "A4",
          "midi": 69,
          "start": 142.73,
          "end": 142.98,
          "duration": 0.25,
          "velocity": 100
        },
        {
          "pitch": "A4",
          "midi": 69,
          "start": 143.298333,
          "end": 143.588333,
          "duration": 0.29,
          "velocity": 100
        },
        {
          "pitch": "G#4",
          "midi": 68,
          "start": 143.643333,
          "end": 143.935,
          "duration": 0.291667,
          "velocity": 100
        },
        {
          "pitch": "E4",
          "midi": 64,
          "start": 144.061667,
          "end": 144.385,
          "duration": 0.323333,
          "velocity": 100
        },
        {
          "pitch": "D4",
          "midi": 62,
          "start": 144.441667,
          "end": 144.79,
          "duration": 0.348333,
          "velocity": 100
        },
        {
          "pitch": "C#4",
          "midi": 61,
          "start": 144.803333,
          "end": 145.023333,
          "duration": 0.22,
          "velocity": 100
        },
        {
          "pitch": "D4",
          "midi": 62,
          "start": 145.05,
          "end": 145.386667,
          "duration": 0.336667,
          "velocity": 100
        },
        {
          "pitch": "E4",
          "midi": 64,
          "start": 145.453333,
          "end": 145.816667,
          "duration": 0.363333,
          "velocity": 100
        },
        {
          "pitch": "F#4",
          "midi": 66,
          "start": 145.98,
          "end": 146.303333,
          "duration": 0.323333,
          "velocity": 100
        },
        {
          "pitch": "C#5",
          "midi": 73,
          "start": 146.416667,
          "end": 146.755,
          "duration": 0.338333,
          "velocity": 100
        },
        {
          "pitch": "B4",
          "midi": 71,
          "start": 146.81,
          "end": 147.155,
          "duration": 0.345,
          "velocity": 100
        },
        {
          "pitch": "A4",
          "midi": 69,
          "start": 147.196667,
          "end": 147.391667,
          "duration": 0.195,
          "velocity": 100
        },
        {
          "pitch": "B4",
          "midi": 71,
          "start": 147.406667,
          "end": 148.26,
          "duration": 0.853333,
          "velocity": 100
        }
      ]
    },
    {
      "id": 15,
      "start": 148.948333,
      "end": 152.59,
      "duration": 3.641667,
      "note_start": 270,
      "note_end": 275,
      "notes": [
        {
          "pitch": "A4",
          "midi": 69,
          "start": 148.948333,
          "end": 149.176667,
          "duration": 0.228333,
          "velocity": 100
        },
        {
          "pitch": "A4",
          "midi": 69,
          "start": 149.205,
          "end": 149.576667,
          "duration": 0.371667,
          "velocity": 100
        },
        {
          "pitch": "G#4",
          "midi": 68,
          "start": 149.991667,
          "end": 150.325,
          "duration": 0.333333,
          "velocity": 100
        },
        {
          "pitch": "A4",
          "midi": 69,
          "start": 150.396667,
          "end": 150.74,
          "duration": 0.343333,
          "velocity": 100
        },
        {
          "pitch": "A4",
          "midi": 69,
          "start": 150.791667,
          "end": 152.59,
          "duration": 1.798333,
          "velocity": 100
        }
      ]
    },
    {
      "id": 16,
      "start": 165.941667,
      "end": 171.858333,
      "duration": 5.916666,
      "note_start": 275,
      "note_end": 291,
      "notes": [
        {
          "pitch": "A3",
          "midi": 57,
          "start": 165.941667,
          "end": 166.1,
          "duration": 0.158333,
          "velocity": 100
        },
        {
          "pitch": "A3",
          "midi": 57,
          "start": 166.15,
          "end": 166.283333,
          "duration": 0.133333,
          "velocity": 100
        },
        {
          "pitch": "B3",
          "midi": 59,
          "start": 166.315,
          "end": 166.483333,
          "duration": 0.168333,
          "velocity": 100
        },
        {
          "pitch": "C#4",
          "midi": 61,
          "start": 166.525,
          "end": 166.786667,
          "duration": 0.261667,
          "velocity": 100
        },
        {
          "pitch": "C#4",
          "midi": 61,
          "start": 166.923333,
          "end": 167.218333,
          "duration": 0.295,
          "velocity": 100
        },
        {
          "pitch": "C#4",
          "midi": 61,
          "start": 167.278333,
          "end": 167.618333,
          "duration": 0.34,
          "velocity": 100
        },
        {
          "pitch": "D4",
          "midi": 62,
          "start": 167.715,
          "end": 167.981667,
          "duration": 0.266667,
          "velocity": 100
        },
        {
          "pitch": "C#4",
          "midi": 61,
          "start": 168.023333,
          "end": 168.675,
          "duration": 0.651667,
          "velocity": 100
        },
        {
          "pitch": "C#4",
          "midi": 61,
          "start": 169.093333,
          "end": 169.255,
          "duration": 0.161667,
          "velocity": 100
        },
        {
          "pitch": "B3",
          "midi": 59,
          "start": 169.271667,
          "end": 169.431667,
          "duration": 0.16,
          "velocity": 100
        },
        {
          "pitch": "A3",
          "midi": 57,
          "start": 169.458333,
          "end": 169.591667,
          "duration": 0.133333,
          "velocity": 100
        },
        {
          "pitch": "B3",
          "midi": 59,
          "start": 169.701667,
          "end": 170.053333,
          "duration": 0.351667,
          "velocity": 100
        },
        {
          "pitch": "B3",
          "midi": 59,
          "start": 170.096667,
          "end": 170.421667,
          "duration": 0.325,
          "velocity": 100
        },
        {
          "pitch": "B3",
          "midi": 59,
          "start": 170.515,
          "end": 170.813333,
          "duration": 0.298333,
          "velocity": 100
        },
        {
          "pitch": "D4",
          "midi": 62,
          "start": 170.88,
          "end": 171.098333,
          "duration": 0.218333,
          "velocity": 100
        },
        {
          "pitch": "C#4",
          "midi": 61,
          "start": 171.198333,
          "end": 171.858333,
          "duration": 0.66,
          "velocity": 100
        }
      ]
    },
    {
      "id": 17,
      "start": 172.476667,
      "end": 176.906667,
      "duration": 4.43,
      "note_start": 291,
      "note_end": 301,
      "notes": [
        {
          "pitch": "B3",
          "midi": 59,
          "start": 172.476667,
          "end": 172.791667,
          "duration": 0.315,
          "velocity": 100
        },
        {
          "pitch": "A3",
          "midi": 57,
          "start": 172.893333,
          "end": 173.191667,
          "duration": 0.298333,
          "velocity": 100
        },
        {
          "pitch": "G#3",
          "midi": 56,
          "start": 173.306667,
          "end": 173.51,
          "duration": 0.203333,
          "velocity": 100
        },
        {
          "pitch": "A3",
          "midi": 57,
          "start": 173.56,
          "end": 173.961667,
          "duration": 0.401667,
          "velocity": 100
        },
        {
          "pitch": "G#3",
          "midi": 56,
          "start": 174.275,
          "end": 174.465,
          "duration": 0.19,
          "velocity": 100
        },
        {
          "pitch": "A3",
          "midi": 57,
          "start": 174.513333,
          "end": 174.838333,
          "duration": 0.325,
          "velocity": 100
        },
        {
          "pitch": "G#3",
          "midi": 56,
          "start": 174.886667,
          "end": 175.196667,
          "duration": 0.31,
          "velocity": 100
        },
        {
          "pitch": "A3",
          "midi": 57,
          "start": 175.226667,
          "end": 175.591667,
          "duration": 0.365,
          "velocity": 100
        },
        {
          "pitch": "F#4",
          "midi": 66,
          "start": 175.64,
          "end": 175.975,
          "duration": 0.335,
          "velocity": 100
        },
        {
          "pitch": "E4",
          "midi": 64,
          "start": 176.076667,
          "end": 176.906667,
          "duration": 0.83,
          "velocity": 100
        }
      ]
    },
    {
      "id": 18,
      "start": 177.568333,
      "end": 189.628333,
      "duration": 12.06,
      "note_start": 301,
      "note_end": 329,
      "notes": [
        {
          "pitch": "E4",
          "midi": 64,
          "start": 177.568333,
          "end": 177.936667,
          "duration": 0.368333,
          "velocity": 100
        },
        {
          "pitch": "D4",
          "midi": 62,
          "start": 177.996667,
          "end": 178.336667,
          "duration": 0.34,
          "velocity": 100
        },
        {
          "pitch": "C#4",
          "midi": 61,
          "start": 178.401667,
          "end": 178.736667,
          "duration": 0.335,
          "velocity": 100
        },
        {
          "pitch": "E4",
          "midi": 64,
          "start": 178.805,
          "end": 179.013333,
          "duration": 0.208333,
          "velocity": 100
        },
        {
          "pitch": "E4",
          "midi": 64,
          "start": 179.225,
          "end": 179.536667,
          "duration": 0.311667,
          "velocity": 100
        },
        {
          "pitch": "F#4",
          "midi": 66,
          "start": 179.585,
          "end": 179.936667,
          "duration": 0.351667,
          "velocity": 100
        },
        {
          "pitch": "D4",
          "midi": 62,
          "start": 180.003333,
          "end": 180.325,
          "duration": 0.321667,
          "velocity": 100
        },
        {
          "pitch": "C#4",
          "midi": 61,
          "start": 180.346667,
          "end": 180.598333,
          "duration": 0.251667,
          "velocity": 100
        },
        {
          "pitch": "B3",
          "midi": 59,
          "start": 180.68,
          "end": 181.291667,
          "duration": 0.611667,
          "velocity": 100
        },
        {
          "pitch": "B3",
          "midi": 59,
          "start": 181.703333,
          "end": 181.855,
          "duration": 0.151667,
          "velocity": 100
        },
        {
          "pitch": "C#4",
          "midi": 61,
          "start": 181.918333,
          "end": 182.09,
          "duration": 0.171667,
          "velocity": 100
        },
        {
          "pitch": "D4",
          "midi": 62,
          "start": 182.133333,
          "end": 182.288333,
          "duration": 0.155,
          "velocity": 100
        },
        {
          "pitch": "D4",
          "midi": 62,
          "start": 182.343333,
          "end": 182.568333,
          "duration": 0.225,
          "velocity": 100
        },
        {
          "pitch": "E4",
          "midi": 64,
          "start": 182.713333,
          "end": 182.991667,
          "duration": 0.278333,
          "velocity": 100
        },
        {
          "pitch": "C#4",
          "midi": 61,
          "start": 183.113333,
          "end": 183.391667,
          "duration": 0.278333,
          "velocity": 100
        },
        {
          "pitch": "B3",
          "midi": 59,
          "start": 183.496667,
          "end": 183.69,
          "duration": 0.193333,
          "velocity": 100
        },
        {
          "pitch": "A3",
          "midi": 57,
          "start": 183.755,
          "end": 184.168333,
          "duration": 0.413333,
          "velocity": 100
        },
        {
          "pitch": "A3",
          "midi": 57,
          "start": 184.311667,
          "end": 184.655,
          "duration": 0.343333,
          "velocity": 100
        },
        {
          "pitch": "G#3",
          "midi": 56,
          "start": 184.73,
          "end": 185.055,
          "duration": 0.325,
          "velocity": 100
        },
        {
          "pitch": "A3",
          "midi": 57,
          "start": 185.098333,
          "end": 185.455,
          "duration": 0.356667,
          "velocity": 100
        },
        {
          "pitch": "D4",
          "midi": 62,
          "start": 185.491667,
          "end": 185.831667,
          "duration": 0.34,
          "velocity": 100
        },
        {
          "pitch": "C#4",
          "midi": 61,
          "start": 185.87,
          "end": 186.191667,
          "duration": 0.321667,
          "velocity": 100
        },
        {
          "pitch": "D4",
          "midi": 62,
          "start": 186.246667,
          "end": 186.513333,
          "duration": 0.266667,
          "velocity": 100
        },
        {
          "pitch": "F#3",
          "midi": 54,
          "start": 186.666667,
          "end": 187.036667,
          "duration": 0.37,
          "velocity": 100
        },
        {
          "pitch": "A3",
          "midi": 57,
          "start": 187.061667,
          "end": 187.463333,
          "duration": 0.401667,
          "velocity": 100
        },
        {
          "pitch": "G#3",
          "midi": 56,
          "start": 187.856667,
          "end": 188.223333,
          "duration": 0.366667,
          "velocity": 100
        },
        {
          "pitch": "A3",
          "midi": 57,
          "start": 188.253333,
          "end": 188.606667,
          "duration": 0.353333,
          "velocity": 100
        },
        {
          "pitch": "A3",
          "midi": 57,
          "start": 188.645,
          "end": 189.628333,
          "duration": 0.983333,
          "velocity": 100
        }
      ]
    },
    {
      "id": 19,
      "start": 191.758333,
      "end": 203.211667,
      "duration": 11.453334,
      "note_start": 329,
      "note_end": 356,
      "notes": [
        {
          "pitch": "D4",
          "midi": 62,
          "start": 191.758333,
          "end": 192.111667,
          "duration": 0.353333,
          "velocity": 100
        },
        {
          "pitch": "D4",
          "midi": 62,
          "start": 192.17,
          "end": 192.511667,
          "duration": 0.341667,
          "velocity": 100
        },
        {
          "pitch": "D4",
          "midi": 62,
          "start": 192.573333,
          "end": 192.906667,
          "duration": 0.333333,
          "velocity": 100
        },
        {
          "pitch": "D4",
          "midi": 62,
          "start": 192.945,
          "end": 193.206667,
          "duration": 0.261667,
          "velocity": 100
        },
        {
          "pitch": "C#4",
          "midi": 61,
          "start": 193.235,
          "end": 193.615,
          "duration": 0.38,
          "velocity": 100
        },
        {
          "pitch": "G#3",
          "midi": 56,
          "start": 193.703333,
          "end": 194.075,
          "duration": 0.371667,
          "velocity": 100
        },
        {
          "pitch": "C#4",
          "midi": 61,
          "start": 194.175,
          "end": 194.57,
          "duration": 0.395,
          "velocity": 100
        },
        {
          "pitch": "B3",
          "midi": 59,
          "start": 194.61,
          "end": 194.896667,
          "duration": 0.286667,
          "velocity": 100
        },
        {
          "pitch": "B3",
          "midi": 59,
          "start": 194.935,
          "end": 195.32,
          "duration": 0.385,
          "velocity": 100
        },
        {
          "pitch": "A3",
          "midi": 57,
          "start": 195.39,
          "end": 195.606667,
          "duration": 0.216667,
          "velocity": 100
        },
        {
          "pitch": "A3",
          "midi": 57,
          "start": 195.673333,
          "end": 196.081667,
          "duration": 0.408333,
          "velocity": 100
        },
        {
          "pitch": "A3",
          "midi": 57,
          "start": 196.35,
          "end": 196.485,
          "duration": 0.135,
          "velocity": 100
        },
        {
          "pitch": "D4",
          "midi": 62,
          "start": 196.528333,
          "end": 196.826667,
          "duration": 0.298333,
          "velocity": 100
        },
        {
          "pitch": "C#4",
          "midi": 61,
          "start": 196.891667,
          "end": 197.226667,
          "duration": 0.335,
          "velocity": 100
        },
        {
          "pitch": "B3",
          "midi": 59,
          "start": 197.325,
          "end": 197.626667,
          "duration": 0.301667,
          "velocity": 100
        },
        {
          "pitch": "C#4",
          "midi": 61,
          "start": 197.711667,
          "end": 198.058333,
          "duration": 0.346667,
          "velocity": 100
        },
        {
          "pitch": "D4",
          "midi": 62,
          "start": 198.128333,
          "end": 198.458333,
          "duration": 0.33,
          "velocity": 100
        },
        {
          "pitch": "C#4",
          "midi": 61,
          "start": 198.503333,
          "end": 198.69,
          "duration": 0.186667,
          "velocity": 100
        },
        {
          "pitch": "D4",
          "midi": 62,
          "start": 198.793333,
          "end": 199.046667,
          "duration": 0.253333,
          "velocity": 100
        },
        {
          "pitch": "F#4",
          "midi": 66,
          "start": 199.356667,
          "end": 199.665,
          "duration": 0.308333,
          "velocity": 100
        },
        {
          "pitch": "F#4",
          "midi": 66,
          "start": 199.711667,
          "end": 199.991667,
          "duration": 0.28,
          "velocity": 100
        },
        {
          "pitch": "G#4",
          "midi": 68,
          "start": 200.125,
          "end": 200.491667,
          "duration": 0.366667,
          "velocity": 100
        },
        {
          "pitch": "E4",
          "midi": 64,
          "start": 200.525,
          "end": 200.791667,
          "duration": 0.266667,
          "velocity": 100
        },
        {
          "pitch": "D4",
          "midi": 62,
          "start": 200.895,
          "end": 201.228333,
          "duration": 0.333333,
          "velocity": 100
        },
        {
          "pitch": "D4",
          "midi": 62,
          "start": 201.258333,
          "end": 201.553333,
          "duration": 0.295,
          "velocity": 100
        },
        {
          "pitch": "E4",
          "midi": 64,
          "start": 201.611667,
          "end": 201.86,
          "duration": 0.248333,
          "velocity": 100
        },
        {
          "pitch": "C#4",
          "midi": 61,
          "start": 201.908333,
          "end": 203.211667,
          "duration": 1.303333,
          "velocity": 100
        }
      ]
    },
    {
      "id": 20,
      "start": 204.401667,
      "end": 209.841667,
      "duration": 5.44,
      "note_start": 356,
      "note_end": 369,
      "notes": [
        {
          "pitch": "F#4",
          "midi": 66,
          "start": 204.401667,
          "end": 204.726667,
          "duration": 0.325,
          "velocity": 100
        },
        {
          "pitch": "F#4",
          "midi": 66,
          "start": 204.786667,
          "end": 205.126667,
          "duration": 0.34,
          "velocity": 100
        },
        {
          "pitch": "F#4",
          "midi": 66,
          "start": 205.216667,
          "end": 205.526667,
          "duration": 0.31,
          "velocity": 100
        },
        {
          "pitch": "F#4",
          "midi": 66,
          "start": 205.583333,
          "end": 205.835,
          "duration": 0.251667,
          "velocity": 100
        },
        {
          "pitch": "F4",
          "midi": 65,
          "start": 205.865,
          "end": 206.291667,
          "duration": 0.426667,
          "velocity": 100
        },
        {
          "pitch": "F#4",
          "midi": 66,
          "start": 206.353333,
          "end": 206.606667,
          "duration": 0.253333,
          "velocity": 100
        },
        {
          "pitch": "G#4",
          "midi": 68,
          "start": 206.631667,
          "end": 207.091667,
          "duration": 0.46,
          "velocity": 100
        },
        {
          "pitch": "C#4",
          "midi": 61,
          "start": 207.368333,
          "end": 207.6,
          "duration": 0.231667,
          "velocity": 100
        },
        {
          "pitch": "G#4",
          "midi": 68,
          "start": 207.616667,
          "end": 207.891667,
          "duration": 0.275,
          "velocity": 100
        },
        {
          "pitch": "A4",
          "midi": 69,
          "start": 207.948333,
          "end": 208.195,
          "duration": 0.246667,
          "velocity": 100
        },
        {
          "pitch": "G#4",
          "midi": 68,
          "start": 208.225,
          "end": 208.55,
          "duration": 0.325,
          "velocity": 100
        },
        {
          "pitch": "E4",
          "midi": 64,
          "start": 208.755,
          "end": 209.135,
          "duration": 0.38,
          "velocity": 100
        },
        {
          "pitch": "A3",
          "midi": 57,
          "start": 209.175,
          "end": 209.841667,
          "duration": 0.666667,
          "velocity": 100
        }
      ]
    },
    {
      "id": 21,
      "start": 210.733333,
      "end": 216.98,
      "duration": 6.246667,
      "note_start": 369,
      "note_end": 378,
      "notes": [
        {
          "pitch": "D4",
          "midi": 62,
          "start": 210.733333,
          "end": 211.081667,
          "duration": 0.348333,
          "velocity": 100
        },
        {
          "pitch": "C#4",
          "midi": 61,
          "start": 211.143333,
          "end": 211.393333,
          "duration": 0.25,
          "velocity": 100
        },
        {
          "pitch": "B3",
          "midi": 59,
          "start": 211.418333,
          "end": 211.885,
          "duration": 0.466667,
          "velocity": 100
        },
        {
          "pitch": "A3",
          "midi": 57,
          "start": 211.936667,
          "end": 212.14,
          "duration": 0.203333,
          "velocity": 100
        },
        {
          "pitch": "D4",
          "midi": 62,
          "start": 212.368333,
          "end": 212.7,
          "duration": 0.331667,
          "velocity": 100
        },
        {
          "pitch": "C#4",
          "midi": 61,
          "start": 212.74,
          "end": 213.051667,
          "duration": 0.311667,
          "velocity": 100
        },
        {
          "pitch": "D4",
          "midi": 62,
          "start": 213.106667,
          "end": 213.45,
          "duration": 0.343333,
          "velocity": 100
        },
        {
          "pitch": "E4",
          "midi": 64,
          "start": 213.523333,
          "end": 213.793333,
          "duration": 0.27,
          "velocity": 100
        },
        {
          "pitch": "E4",
          "midi": 64,
          "start": 213.95,
          "end": 216.98,
          "duration": 3.03,
          "velocity": 100
        }
      ]
    },
    {
      "id": 22,
      "start": 219.636667,
      "end": 273.2,
      "duration": 53.563333,
      "note_start": 378,
      "note_end": 496,
      "notes": [
        {
          "pitch": "E4",
          "midi": 64,
          "start": 219.636667,
          "end": 219.816667,
          "duration": 0.18,
          "velocity": 100
        },
        {
          "pitch": "E4",
          "midi": 64,
          "start": 219.843333,
          "end": 220.016667,
          "duration": 0.173333,
          "velocity": 100
        },
        {
          "pitch": "G#4",
          "midi": 68,
          "start": 220.051667,
          "end": 220.26,
          "duration": 0.208333,
          "velocity": 100
        },
        {
          "pitch": "A4",
          "midi": 69,
          "start": 220.316667,
          "end": 220.595,
          "duration": 0.278333,
          "velocity": 100
        },
        {
          "pitch": "A4",
          "midi": 69,
          "start": 220.67,
          "end": 220.858333,
          "duration": 0.188333,
          "velocity": 100
        },
        {
          "pitch": "A4",
          "midi": 69,
          "start": 220.92,
          "end": 221.225,
          "duration": 0.305,
          "velocity": 100
        },
        {
          "pitch": "E4",
          "midi": 64,
          "start": 221.415,
          "end": 221.778333,
          "duration": 0.363333,
          "velocity": 100
        },
        {
          "pitch": "E4",
          "midi": 64,
          "start": 221.805,
          "end": 222.36,
          "duration": 0.555,
          "velocity": 100
        },
        {
          "pitch": "E4",
          "midi": 64,
          "start": 222.71,
          "end": 222.898333,
          "duration": 0.188333,
          "velocity": 100
        },
        {
          "pitch": "E4",
          "midi": 64,
          "start": 222.933333,
          "end": 223.071667,
          "duration": 0.138333,
          "velocity": 100
        },
        {
          "pitch": "A4",
          "midi": 69,
          "start": 223.098333,
          "end": 223.29,
          "duration": 0.191667,
          "velocity": 100
        },
        {
          "pitch": "B4",
          "midi": 71,
          "start": 223.378333,
          "end": 223.708333,
          "duration": 0.33,
          "velocity": 100
        },
        {
          "pitch": "B4",
          "midi": 71,
          "start": 223.76,
          "end": 223.926667,
          "duration": 0.166667,
          "velocity": 100
        },
        {
          "pitch": "B4",
          "midi": 71,
          "start": 223.953333,
          "end": 224.311667,
          "duration": 0.358333,
          "velocity": 100
        },
        {
          "pitch": "E4",
          "midi": 64,
          "start": 224.475,
          "end": 224.866667,
          "duration": 0.391667,
          "velocity": 100
        },
        {
          "pitch": "F4",
          "midi": 65,
          "start": 224.931667,
          "end": 225.373333,
          "duration": 0.441667,
          "velocity": 100
        },
        {
          "pitch": "B4",
          "midi": 71,
          "start": 225.69,
          "end": 226.106667,
          "duration": 0.416667,
          "velocity": 100
        },
        {
          "pitch": "C#5",
          "midi": 73,
          "start": 226.13,
          "end": 226.455,
          "duration": 0.325,
          "velocity": 100
        },
        {
          "pitch": "B4",
          "midi": 71,
          "start": 226.54,
          "end": 226.803333,
          "duration": 0.263333,
          "velocity": 100
        },
        {
          "pitch": "A4",
          "midi": 69,
          "start": 226.908333,
          "end": 227.131667,
          "duration": 0.223333,
          "velocity": 100
        },
        {
          "pitch": "A4",
          "midi": 69,
          "start": 227.168333,
          "end": 227.62,
          "duration": 0.451667,
          "velocity": 100
        },
        {
          "pitch": "A4",
          "midi": 69,
          "start": 227.933333,
          "end": 228.106667,
          "duration": 0.173333,
          "velocity": 100
        },
        {
          "pitch": "G#4",
          "midi": 68,
          "start": 228.151667,
          "end": 228.458333,
          "duration": 0.306667,
          "velocity": 100
        },
        {
          "pitch": "A4",
          "midi": 69,
          "start": 228.525,
          "end": 228.87,
          "duration": 0.345,
          "velocity": 100
        },
        {
          "pitch": "G#4",
          "midi": 68,
          "start": 228.908333,
          "end": 229.186667,
          "duration": 0.278333,
          "velocity": 100
        },
        {
          "pitch": "E4",
          "midi": 64,
          "start": 229.286667,
          "end": 229.641667,
          "duration": 0.355,
          "velocity": 100
        },
        {
          "pitch": "F#4",
          "midi": 66,
          "start": 229.68,
          "end": 230.291667,
          "duration": 0.611667,
          "velocity": 100
        },
        {
          "pitch": "B4",
          "midi": 71,
          "start": 230.431667,
          "end": 231.841667,
          "duration": 1.41,
          "velocity": 100
        },
        {
          "pitch": "B3",
          "midi": 59,
          "start": 232.275,
          "end": 232.428333,
          "duration": 0.153333,
          "velocity": 100
        },
        {
          "pitch": "B3",
          "midi": 59,
          "start": 232.463333,
          "end": 232.628333,
          "duration": 0.165,
          "velocity": 100
        },
        {
          "pitch": "C#4",
          "midi": 61,
          "start": 232.661667,
          "end": 232.85,
          "duration": 0.188333,
          "velocity": 100
        },
        {
          "pitch": "D4",
          "midi": 62,
          "start": 232.873333,
          "end": 233.185,
          "duration": 0.311667,
          "velocity": 100
        },
        {
          "pitch": "C#4",
          "midi": 61,
          "start": 233.231667,
          "end": 233.525,
          "duration": 0.293333,
          "velocity": 100
        },
        {
          "pitch": "D4",
          "midi": 62,
          "start": 233.615,
          "end": 233.891667,
          "duration": 0.276667,
          "velocity": 100
        },
        {
          "pitch": "F#4",
          "midi": 66,
          "start": 233.998333,
          "end": 234.225,
          "duration": 0.226667,
          "velocity": 100
        },
        {
          "pitch": "E4",
          "midi": 64,
          "start": 234.273333,
          "end": 234.99,
          "duration": 0.716667,
          "velocity": 100
        },
        {
          "pitch": "C#4",
          "midi": 61,
          "start": 235.38,
          "end": 235.575,
          "duration": 0.195,
          "velocity": 100
        },
        {
          "pitch": "C#4",
          "midi": 61,
          "start": 235.598333,
          "end": 235.775,
          "duration": 0.176667,
          "velocity": 100
        },
        {
          "pitch": "D4",
          "midi": 62,
          "start": 235.798333,
          "end": 235.975,
          "duration": 0.176667,
          "velocity": 100
        },
        {
          "pitch": "E4",
          "midi": 64,
          "start": 236.023333,
          "end": 236.353333,
          "duration": 0.33,
          "velocity": 100
        },
        {
          "pitch": "E4",
          "midi": 64,
          "start": 236.4,
          "end": 236.691667,
          "duration": 0.291667,
          "velocity": 100
        },
        {
          "pitch": "B4",
          "midi": 71,
          "start": 236.771667,
          "end": 237.091667,
          "duration": 0.32,
          "velocity": 100
        },
        {
          "pitch": "G#4",
          "midi": 68,
          "start": 237.168333,
          "end": 237.421667,
          "duration": 0.253333,
          "velocity": 100
        },
        {
          "pitch": "A4",
          "midi": 69,
          "start": 237.46,
          "end": 237.791667,
          "duration": 0.331667,
          "velocity": 100
        },
        {
          "pitch": "A4",
          "midi": 69,
          "start": 237.961667,
          "end": 238.343333,
          "duration": 0.381667,
          "velocity": 100
        },
        {
          "pitch": "G#4",
          "midi": 68,
          "start": 238.406667,
          "end": 238.665,
          "duration": 0.258333,
          "velocity": 100
        },
        {
          "pitch": "E4",
          "midi": 64,
          "start": 238.785,
          "end": 239.065,
          "duration": 0.28,
          "velocity": 100
        },
        {
          "pitch": "D4",
          "midi": 62,
          "start": 239.148333,
          "end": 239.485,
          "duration": 0.336667,
          "velocity": 100
        },
        {
          "pitch": "C#4",
          "midi": 61,
          "start": 239.571667,
          "end": 239.765,
          "duration": 0.193333,
          "velocity": 100
        },
        {
          "pitch": "D4",
          "midi": 62,
          "start": 239.808333,
          "end": 240.17,
          "duration": 0.361667,
          "velocity": 100
        },
        {
          "pitch": "E4",
          "midi": 64,
          "start": 240.195,
          "end": 240.463333,
          "duration": 0.268333,
          "velocity": 100
        },
        {
          "pitch": "F#4",
          "midi": 66,
          "start": 240.751667,
          "end": 241.126667,
          "duration": 0.375,
          "velocity": 100
        },
        {
          "pitch": "C#5",
          "midi": 73,
          "start": 241.156667,
          "end": 241.493333,
          "duration": 0.336667,
          "velocity": 100
        },
        {
          "pitch": "B4",
          "midi": 71,
          "start": 241.535,
          "end": 241.793333,
          "duration": 0.258333,
          "velocity": 100
        },
        {
          "pitch": "A4",
          "midi": 69,
          "start": 241.946667,
          "end": 242.193333,
          "duration": 0.246667,
          "velocity": 100
        },
        {
          "pitch": "B4",
          "midi": 71,
          "start": 242.221667,
          "end": 244.381667,
          "duration": 2.16,
          "velocity": 100
        },
        {
          "pitch": "E4",
          "midi": 64,
          "start": 244.83,
          "end": 245.0,
          "duration": 0.17,
          "velocity": 100
        },
        {
          "pitch": "E4",
          "midi": 64,
          "start": 245.036667,
          "end": 245.225,
          "duration": 0.188333,
          "velocity": 100
        },
        {
          "pitch": "G#4",
          "midi": 68,
          "start": 245.246667,
          "end": 245.415,
          "duration": 0.168333,
          "velocity": 100
        },
        {
          "pitch": "A4",
          "midi": 69,
          "start": 245.506667,
          "end": 245.858333,
          "duration": 0.351667,
          "velocity": 100
        },
        {
          "pitch": "A4",
          "midi": 69,
          "start": 245.888333,
          "end": 246.086667,
          "duration": 0.198333,
          "velocity": 100
        },
        {
          "pitch": "A4",
          "midi": 69,
          "start": 246.128333,
          "end": 246.491667,
          "duration": 0.363333,
          "velocity": 100
        },
        {
          "pitch": "E4",
          "midi": 64,
          "start": 246.648333,
          "end": 247.016667,
          "duration": 0.368333,
          "velocity": 100
        },
        {
          "pitch": "E4",
          "midi": 64,
          "start": 247.05,
          "end": 247.693333,
          "duration": 0.643333,
          "velocity": 100
        },
        {
          "pitch": "E4",
          "midi": 64,
          "start": 248.021667,
          "end": 248.211667,
          "duration": 0.19,
          "velocity": 100
        },
        {
          "pitch": "E4",
          "midi": 64,
          "start": 248.25,
          "end": 248.406667,
          "duration": 0.156667,
          "velocity": 100
        },
        {
          "pitch": "A4",
          "midi": 69,
          "start": 248.445,
          "end": 248.608333,
          "duration": 0.163333,
          "velocity": 100
        },
        {
          "pitch": "B4",
          "midi": 71,
          "start": 248.68,
          "end": 248.995,
          "duration": 0.315,
          "velocity": 100
        },
        {
          "pitch": "B4",
          "midi": 71,
          "start": 249.05,
          "end": 249.281667,
          "duration": 0.231667,
          "velocity": 100
        },
        {
          "pitch": "B4",
          "midi": 71,
          "start": 249.32,
          "end": 249.62,
          "duration": 0.3,
          "velocity": 100
        },
        {
          "pitch": "E4",
          "midi": 64,
          "start": 249.795,
          "end": 250.078333,
          "duration": 0.283333,
          "velocity": 100
        },
        {
          "pitch": "F4",
          "midi": 65,
          "start": 250.215,
          "end": 250.7,
          "duration": 0.485,
          "velocity": 100
        },
        {
          "pitch": "B4",
          "midi": 71,
          "start": 250.975,
          "end": 251.333333,
          "duration": 0.358333,
          "velocity": 100
        },
        {
          "pitch": "C#5",
          "midi": 73,
          "start": 251.393333,
          "end": 251.733333,
          "duration": 0.34,
          "velocity": 100
        },
        {
          "pitch": "B4",
          "midi": 71,
          "start": 251.778333,
          "end": 252.133333,
          "duration": 0.355,
          "velocity": 100
        },
        {
          "pitch": "A4",
          "midi": 69,
          "start": 252.201667,
          "end": 252.393333,
          "duration": 0.191667,
          "velocity": 100
        },
        {
          "pitch": "A4",
          "midi": 69,
          "start": 252.426667,
          "end": 252.858333,
          "duration": 0.431667,
          "velocity": 100
        },
        {
          "pitch": "A4",
          "midi": 69,
          "start": 253.158333,
          "end": 253.351667,
          "duration": 0.193333,
          "velocity": 100
        },
        {
          "pitch": "G#4",
          "midi": 68,
          "start": 253.393333,
          "end": 253.775,
          "duration": 0.381667,
          "velocity": 100
        },
        {
          "pitch": "A4",
          "midi": 69,
          "start": 253.81,
          "end": 254.165,
          "duration": 0.355,
          "velocity": 100
        },
        {
          "pitch": "G#4",
          "midi": 68,
          "start": 254.19,
          "end": 254.565,
          "duration": 0.375,
          "velocity": 100
        },
        {
          "pitch": "E4",
          "midi": 64,
          "start": 254.595,
          "end": 254.943333,
          "duration": 0.348333,
          "velocity": 100
        },
        {
          "pitch": "F#4",
          "midi": 66,
          "start": 254.98,
          "end": 255.291667,
          "duration": 0.311667,
          "velocity": 100
        },
        {
          "pitch": "C#5",
          "midi": 73,
          "start": 255.411667,
          "end": 255.728333,
          "duration": 0.316667,
          "velocity": 100
        },
        {
          "pitch": "C#5",
          "midi": 73,
          "start": 255.773333,
          "end": 257.031667,
          "duration": 1.258333,
          "velocity": 100
        },
        {
          "pitch": "D4",
          "midi": 62,
          "start": 257.493333,
          "end": 257.651667,
          "duration": 0.158333,
          "velocity": 100
        },
        {
          "pitch": "D4",
          "midi": 62,
          "start": 257.718333,
          "end": 257.883333,
          "duration": 0.165,
          "velocity": 100
        },
        {
          "pitch": "E4",
          "midi": 64,
          "start": 257.91,
          "end": 258.06,
          "duration": 0.15,
          "velocity": 100
        },
        {
          "pitch": "F#4",
          "midi": 66,
          "start": 258.118333,
          "end": 258.43,
          "duration": 0.311667,
          "velocity": 100
        },
        {
          "pitch": "E4",
          "midi": 64,
          "start": 258.491667,
          "end": 258.828333,
          "duration": 0.336667,
          "velocity": 100
        },
        {
          "pitch": "F#4",
          "midi": 66,
          "start": 258.896667,
          "end": 259.271667,
          "duration": 0.375,
          "velocity": 100
        },
        {
          "pitch": "A4",
          "midi": 69,
          "start": 259.31,
          "end": 259.688333,
          "duration": 0.378333,
          "velocity": 100
        },
        {
          "pitch": "G#4",
          "midi": 68,
          "start": 259.723333,
          "end": 260.316667,
          "duration": 0.593333,
          "velocity": 100
        },
        {
          "pitch": "G#4",
          "midi": 68,
          "start": 260.65,
          "end": 260.811667,
          "duration": 0.161667,
          "velocity": 100
        },
        {
          "pitch": "G#4",
          "midi": 68,
          "start": 260.856667,
          "end": 261.061667,
          "duration": 0.205,
          "velocity": 100
        },
        {
          "pitch": "F#4",
          "midi": 66,
          "start": 261.086667,
          "end": 261.285,
          "duration": 0.198333,
          "velocity": 100
        },
        {
          "pitch": "F4",
          "midi": 65,
          "start": 261.313333,
          "end": 261.621667,
          "duration": 0.308333,
          "velocity": 100
        },
        {
          "pitch": "F4",
          "midi": 65,
          "start": 261.671667,
          "end": 261.95,
          "duration": 0.278333,
          "velocity": 100
        },
        {
          "pitch": "C#5",
          "midi": 73,
          "start": 262.05,
          "end": 262.43,
          "duration": 0.38,
          "velocity": 100
        },
        {
          "pitch": "B4",
          "midi": 71,
          "start": 262.446667,
          "end": 262.7,
          "duration": 0.253333,
          "velocity": 100
        },
        {
          "pitch": "A4",
          "midi": 69,
          "start": 262.72,
          "end": 262.97,
          "duration": 0.25,
          "velocity": 100
        },
        {
          "pitch": "A4",
          "midi": 69,
          "start": 263.225,
          "end": 263.631667,
          "duration": 0.406667,
          "velocity": 100
        },
        {
          "pitch": "G#4",
          "midi": 68,
          "start": 263.646667,
          "end": 263.945,
          "duration": 0.298333,
          "velocity": 100
        },
        {
          "pitch": "E4",
          "midi": 64,
          "start": 264.058333,
          "end": 264.41,
          "duration": 0.351667,
          "velocity": 100
        },
        {
          "pitch": "D4",
          "midi": 62,
          "start": 264.45,
          "end": 264.795,
          "duration": 0.345,
          "velocity": 100
        },
        {
          "pitch": "C#4",
          "midi": 61,
          "start": 264.815,
          "end": 265.016667,
          "duration": 0.201667,
          "velocity": 100
        },
        {
          "pitch": "D4",
          "midi": 62,
          "start": 265.043333,
          "end": 265.345,
          "duration": 0.301667,
          "velocity": 100
        },
        {
          "pitch": "E4",
          "midi": 64,
          "start": 265.423333,
          "end": 265.745,
          "duration": 0.321667,
          "velocity": 100
        },
        {
          "pitch": "F#4",
          "midi": 66,
          "start": 266.003333,
          "end": 266.348333,
          "duration": 0.345,
          "velocity": 100
        },
        {
          "pitch": "C#5",
          "midi": 73,
          "start": 266.396667,
          "end": 266.746667,
          "duration": 0.35,
          "velocity": 100
        },
        {
          "pitch": "B4",
          "midi": 71,
          "start": 266.805,
          "end": 267.133333,
          "duration": 0.328333,
          "velocity": 100
        },
        {
          "pitch": "A4",
          "midi": 69,
          "start": 267.198333,
          "end": 267.455,
          "duration": 0.256667,
          "velocity": 100
        },
        {
          "pitch": "B4",
          "midi": 71,
          "start": 267.488333,
          "end": 268.53,
          "duration": 1.041667,
          "velocity": 100
        },
        {
          "pitch": "A4",
          "midi": 69,
          "start": 268.935,
          "end": 269.128333,
          "duration": 0.193333,
          "velocity": 100
        },
        {
          "pitch": "A4",
          "midi": 69,
          "start": 269.156667,
          "end": 269.525,
          "duration": 0.368333,
          "velocity": 100
        },
        {
          "pitch": "G#4",
          "midi": 68,
          "start": 269.903333,
          "end": 270.288333,
          "duration": 0.385,
          "velocity": 100
        },
        {
          "pitch": "A4",
          "midi": 69,
          "start": 270.318333,
          "end": 270.665,
          "duration": 0.346667,
          "velocity": 100
        },
        {
          "pitch": "A4",
          "midi": 69,
          "start": 270.69,
          "end": 273.2,
          "duration": 2.51,
          "velocity": 100
        }
      ]
    },
    {
      "id": 23,
      "start": 276.445,
      "end": 303.97,
      "duration": 27.525,
      "note_start": 496,
      "note_end": 558,
      "notes": [
        {
          "pitch": "E4",
          "midi": 64,
          "start": 276.445,
          "end": 276.633333,
          "duration": 0.188333,
          "velocity": 100
        },
        {
          "pitch": "E4",
          "midi": 64,
          "start": 276.663333,
          "end": 276.855,
          "duration": 0.191667,
          "velocity": 100
        },
        {
          "pitch": "G#4",
          "midi": 68,
          "start": 276.875,
          "end": 277.1,
          "duration": 0.225,
          "velocity": 100
        },
        {
          "pitch": "A4",
          "midi": 69,
          "start": 277.163333,
          "end": 277.43,
          "duration": 0.266667,
          "velocity": 100
        },
        {
          "pitch": "A4",
          "midi": 69,
          "start": 277.515,
          "end": 277.77,
          "duration": 0.255,
          "velocity": 100
        },
        {
          "pitch": "A4",
          "midi": 69,
          "start": 277.803333,
          "end": 278.175,
          "duration": 0.371667,
          "velocity": 100
        },
        {
          "pitch": "E4",
          "midi": 64,
          "start": 278.298333,
          "end": 278.631667,
          "duration": 0.333333,
          "velocity": 100
        },
        {
          "pitch": "E4",
          "midi": 64,
          "start": 278.688333,
          "end": 279.22,
          "duration": 0.531667,
          "velocity": 100
        },
        {
          "pitch": "E4",
          "midi": 64,
          "start": 279.668333,
          "end": 279.833333,
          "duration": 0.165,
          "velocity": 100
        },
        {
          "pitch": "E4",
          "midi": 64,
          "start": 279.881667,
          "end": 280.033333,
          "duration": 0.151667,
          "velocity": 100
        },
        {
          "pitch": "A4",
          "midi": 69,
          "start": 280.05,
          "end": 280.278333,
          "duration": 0.228333,
          "velocity": 100
        },
        {
          "pitch": "B4",
          "midi": 71,
          "start": 280.326667,
          "end": 280.655,
          "duration": 0.328333,
          "velocity": 100
        },
        {
          "pitch": "B4",
          "midi": 71,
          "start": 280.741667,
          "end": 280.933333,
          "duration": 0.191667,
          "velocity": 100
        },
        {
          "pitch": "B4",
          "midi": 71,
          "start": 280.971667,
          "end": 281.258333,
          "duration": 0.286667,
          "velocity": 100
        },
        {
          "pitch": "E4",
          "midi": 64,
          "start": 281.385,
          "end": 281.666667,
          "duration": 0.281667,
          "velocity": 100
        },
        {
          "pitch": "F4",
          "midi": 65,
          "start": 281.813333,
          "end": 282.191667,
          "duration": 0.378333,
          "velocity": 100
        },
        {
          "pitch": "B4",
          "midi": 71,
          "start": 282.606667,
          "end": 282.96,
          "duration": 0.353333,
          "velocity": 100
        },
        {
          "pitch": "C#5",
          "midi": 73,
          "start": 282.988333,
          "end": 283.36,
          "duration": 0.371667,
          "velocity": 100
        },
        {
          "pitch": "B4",
          "midi": 71,
          "start": 283.401667,
          "end": 283.76,
          "duration": 0.358333,
          "velocity": 100
        },
        {
          "pitch": "A4",
          "midi": 69,
          "start": 283.81,
          "end": 283.996667,
          "duration": 0.186667,
          "velocity": 100
        },
        {
          "pitch": "A4",
          "midi": 69,
          "start": 284.025,
          "end": 284.391667,
          "duration": 0.366667,
          "velocity": 100
        },
        {
          "pitch": "A4",
          "midi": 69,
          "start": 284.771667,
          "end": 285.001667,
          "duration": 0.23,
          "velocity": 100
        },
        {
          "pitch": "G#4",
          "midi": 68,
          "start": 285.015,
          "end": 285.365,
          "duration": 0.35,
          "velocity": 100
        },
        {
          "pitch": "A4",
          "midi": 69,
          "start": 285.383333,
          "end": 285.685,
          "duration": 0.301667,
          "velocity": 100
        },
        {
          "pitch": "G#4",
          "midi": 68,
          "start": 285.751667,
          "end": 285.971667,
          "duration": 0.22,
          "velocity": 100
        },
        {
          "pitch": "E4",
          "midi": 64,
          "start": 286.121667,
          "end": 286.491667,
          "duration": 0.37,
          "velocity": 100
        },
        {
          "pitch": "F#4",
          "midi": 66,
          "start": 286.521667,
          "end": 286.891667,
          "duration": 0.37,
          "velocity": 100
        },
        {
          "pitch": "B4",
          "midi": 71,
          "start": 286.933333,
          "end": 287.245,
          "duration": 0.311667,
          "velocity": 100
        },
        {
          "pitch": "B4",
          "midi": 71,
          "start": 287.293333,
          "end": 288.715,
          "duration": 1.421667,
          "velocity": 100
        },
        {
          "pitch": "D4",
          "midi": 62,
          "start": 289.083333,
          "end": 289.215,
          "duration": 0.131667,
          "velocity": 100
        },
        {
          "pitch": "D4",
          "midi": 62,
          "start": 289.281667,
          "end": 289.415,
          "duration": 0.133333,
          "velocity": 100
        },
        {
          "pitch": "E4",
          "midi": 64,
          "start": 289.45,
          "end": 289.615,
          "duration": 0.165,
          "velocity": 100
        },
        {
          "pitch": "F#4",
          "midi": 66,
          "start": 289.683333,
          "end": 290.035,
          "duration": 0.351667,
          "velocity": 100
        },
        {
          "pitch": "E4",
          "midi": 64,
          "start": 290.101667,
          "end": 290.435,
          "duration": 0.333333,
          "velocity": 100
        },
        {
          "pitch": "F#4",
          "midi": 66,
          "start": 290.503333,
          "end": 290.835,
          "duration": 0.331667,
          "velocity": 100
        },
        {
          "pitch": "A4",
          "midi": 69,
          "start": 290.893333,
          "end": 291.235,
          "duration": 0.341667,
          "velocity": 100
        },
        {
          "pitch": "G#4",
          "midi": 68,
          "start": 291.326667,
          "end": 291.915,
          "duration": 0.588333,
          "velocity": 100
        },
        {
          "pitch": "G#4",
          "midi": 68,
          "start": 292.25,
          "end": 292.376667,
          "duration": 0.126667,
          "velocity": 100
        },
        {
          "pitch": "G#4",
          "midi": 68,
          "start": 292.421667,
          "end": 292.576667,
          "duration": 0.155,
          "velocity": 100
        },
        {
          "pitch": "F#4",
          "midi": 66,
          "start": 292.651667,
          "end": 292.776667,
          "duration": 0.125,
          "velocity": 100
        },
        {
          "pitch": "F4",
          "midi": 65,
          "start": 292.853333,
          "end": 293.171667,
          "duration": 0.318333,
          "velocity": 100
        },
        {
          "pitch": "F4",
          "midi": 65,
          "start": 293.25,
          "end": 293.536667,
          "duration": 0.286667,
          "velocity": 100
        },
        {
          "pitch": "C#5",
          "midi": 73,
          "start": 293.655,
          "end": 294.053333,
          "duration": 0.398333,
          "velocity": 100
        },
        {
          "pitch": "B4",
          "midi": 71,
          "start": 294.086667,
          "end": 294.273333,
          "duration": 0.186667,
          "velocity": 100
        },
        {
          "pitch": "A4",
          "midi": 69,
          "start": 294.316667,
          "end": 294.598333,
          "duration": 0.281667,
          "velocity": 100
        },
        {
          "pitch": "A4",
          "midi": 69,
          "start": 294.858333,
          "end": 295.245,
          "duration": 0.386667,
          "velocity": 100
        },
        {
          "pitch": "G#4",
          "midi": 68,
          "start": 295.263333,
          "end": 295.491667,
          "duration": 0.228333,
          "velocity": 100
        },
        {
          "pitch": "E4",
          "midi": 64,
          "start": 295.65,
          "end": 295.983333,
          "duration": 0.333333,
          "velocity": 100
        },
        {
          "pitch": "D4",
          "midi": 62,
          "start": 296.026667,
          "end": 296.39,
          "duration": 0.363333,
          "velocity": 100
        },
        {
          "pitch": "C#4",
          "midi": 61,
          "start": 296.428333,
          "end": 296.631667,
          "duration": 0.203333,
          "velocity": 100
        },
        {
          "pitch": "D4",
          "midi": 62,
          "start": 296.676667,
          "end": 296.93,
          "duration": 0.253333,
          "velocity": 100
        },
        {
          "pitch": "E4",
          "midi": 64,
          "start": 297.046667,
          "end": 297.39,
          "duration": 0.343333,
          "velocity": 100
        },
        {
          "pitch": "F#4",
          "midi": 66,
          "start": 297.591667,
          "end": 297.963333,
          "duration": 0.371667,
          "velocity": 100
        },
        {
          "pitch": "C#5",
          "midi": 73,
          "start": 297.998333,
          "end": 298.351667,
          "duration": 0.353333,
          "velocity": 100
        },
        {
          "pitch": "B4",
          "midi": 71,
          "start": 298.368333,
          "end": 298.691667,
          "duration": 0.323333,
          "velocity": 100
        },
        {
          "pitch": "A4",
          "midi": 69,
          "start": 298.755,
          "end": 298.99,
          "duration": 0.235,
          "velocity": 100
        },
        {
          "pitch": "B4",
          "midi": 71,
          "start": 299.005,
          "end": 300.028333,
          "duration": 1.023333,
          "velocity": 100
        },
        {
          "pitch": "A4",
          "midi": 69,
          "start": 300.528333,
          "end": 300.726667,
          "duration": 0.198333,
          "velocity": 100
        },
        {
          "pitch": "A4",
          "midi": 69,
          "start": 300.768333,
          "end": 301.145,
          "duration": 0.376667,
          "velocity": 100
        },
        {
          "pitch": "G#4",
          "midi": 68,
          "start": 301.565,
          "end": 301.955,
          "duration": 0.39,
          "velocity": 100
        },
        {
          "pitch": "A4",
          "midi": 69,
          "start": 301.998333,
          "end": 302.343333,
          "duration": 0.345,
          "velocity": 100
        },
        {
          "pitch": "A4",
          "midi": 69,
          "start": 302.378333,
          "end": 303.97,
          "duration": 1.591667,
          "velocity": 100
        }
      ]
    }
  ],
  "warnings": []
}
